<svg xmlns="http://www.w3.org/2000/svg" viewBox="0 0 403.52 76.84"><defs><style>.cls-1{fill:#21b193;}.cls-2{fill:#fff;}</style></defs><g id="Layer_2" data-name="Layer 2"><g id="Layer_1-2" data-name="Layer 1"><path d="M0,0H105.69V76.64a16.45,16.45,0,0,1-1.87.2H1.49c-.5,0-1-.07-1.49-.11ZM102.57,73.68V4.57l-96,69a11.22,11.22,0,0,0,1.25.22c11.73,0,23.46,0,35.2,0a5.15,5.15,0,0,0,2.67-1c4.22-2.94,8.37-6,12.55-9L76.74,50.55,78.52,53,49.81,73.68ZM3.19,4.5V72.3L50.58,38.21ZM7.5,3.22A6,6,0,0,0,8.21,4Q30.1,19.59,52,35.17c1.39,1,2.2.44,3.23-.31L96.8,4.6c.48-.35.89-.77,1.59-1.38Z"/><path d="M205.83,25.82V75.63h-15V1.82c.83-.05,1.7-.14,2.57-.14,4.66,0,9.32.09,14-.05a3.6,3.6,0,0,1,3.94,2.42C217,16.14,222.8,28.17,228.58,40.22c.38.78.81,1.53,1.45,2.74.7-1.32,1.18-2.16,1.6-3,5.87-12,11.76-24,17.55-36a3.32,3.32,0,0,1,3.55-2.27c5.55.13,11.11.05,16.82.05v74h-15V26.11l-.66-.22c-.4.71-.84,1.4-1.22,2.13-5.43,10.29-10.89,20.56-16.24,30.89a3.14,3.14,0,0,1-3.44,2c-2.64-.17-5.84.75-7.81-.43s-2.71-4.35-3.94-6.68q-6.87-13-13.7-26.07c-.37-.71-.8-1.39-1.2-2.09Z"/><path d="M361.6,75.7H346.33V1.92a6.68,6.68,0,0,1,1.24-.23c10.73.08,21.47.05,32.19.33A28,28,0,0,1,388,3.72c10.57,3.63,16.21,12.49,15.43,23.84-.69,10.1-7.94,18.11-18.73,20.38a55.82,55.82,0,0,1-9.4,1c-4.48.17-9,0-13.72,0Zm.06-38.19c4.59,0,9,0,13.52,0a22.85,22.85,0,0,0,4.2-.44c5.13-1,8.41-5,8.82-10.55.43-5.82-2.39-11-7.36-12.4-6.3-1.83-12.78-.58-19.18-.85Z"/><path d="M175.1,5.57c-1.28,4.34-2.5,8.43-3.78,12.76-1.7-.78-3.23-1.5-4.78-2.19a37.39,37.39,0,0,0-19.67-3.25c-5.5.6-8.76,4-8.57,8.78a7.46,7.46,0,0,0,4.56,6.62c3.95,1.87,8.15,3.22,12.19,4.9,5,2.06,10.18,3.73,14.72,6.49,7.78,4.74,10.75,13.14,8.51,21.69a17.84,17.84,0,0,1-8.47,10.86,30.75,30.75,0,0,1-13.91,4.34c-11.79.89-23.22-.65-34-5.74-.3-.14-.57-.32-1-.59,1-4.21,2-8.43,3.06-12.94a42.71,42.71,0,0,0,18.7,6.76,77.58,77.58,0,0,0,12.66.24c3.62-.22,6.87-1.67,8-5.61s-.36-7.63-4.31-9.91c-3-1.76-6.48-2.87-9.76-4.23-5.27-2.19-10.74-4-15.78-6.62s-8.92-6.92-10-12.86c-1.5-7.95,1.27-14.28,7.84-18.94A30.51,30.51,0,0,1,147.31.8,59.25,59.25,0,0,1,175.1,5.57Z"/><path d="M300.35,13.26H278.87c0-3.62-.07-7,.09-10.47,0-.4,1.28-1,2-1.06,3.9-.11,7.82-.05,11.73-.05h44.48V13.19H315.67V75.61H300.35Z"/><path class="cls-1" d="M7.5,3.22H98.39c-.7.61-1.11,1-1.59,1.38L55.19,34.86c-1,.75-1.84,1.31-3.23.31Q30.13,19.54,8.21,4A6,6,0,0,1,7.5,3.22Z"/><path class="cls-2" d="M361.66,37.51V13.25c6.4.27,12.88-1,19.18.85,5,1.44,7.79,6.58,7.36,12.4-.41,5.54-3.69,9.51-8.82,10.55a22.85,22.85,0,0,1-4.2.44C370.71,37.54,366.25,37.51,361.66,37.51Z"/></g></g></svg>